<svg version="1.1" xmlns="http://www.w3.org/2000/svg" viewBox="0 0 2973.859836078871 2084.2330489622427" width="2973.859836078871" height="2084.2330489622427">
  <!-- svg-source:excalidraw -->
  
  <defs>
    <style>
      @font-face {
        font-family: "Virgil";
        src: url("https://excalidraw.com/Virgil.woff2");
      }
      @font-face {
        font-family: "Cascadia";
        src: url("https://excalidraw.com/Cascadia.woff2");
      }
    </style>
  </defs>
  <rect x="0" y="0" width="2973.859836078871" height="2084.2330489622427" fill="#ffffff"></rect><g transform="translate(512.8990728161771 40.10447382566531) rotate(0 57 23)"><text x="0" y="32" font-family="Virgil, Segoe UI Emoji" font-size="36px" fill="#000000" text-anchor="start" style="white-space: pre;" direction="ltr">MySQL</text></g><g transform="translate(514.9983639890634 145.4007535174719) rotate(0 155.5 114)"><text x="0" y="32.6" font-family="Virgil, Segoe UI Emoji" font-size="36px" fill="#000000" text-anchor="start" style="white-space: pre;" direction="ltr">-DB_PATH:String</text><text x="0" y="78.2" font-family="Virgil, Segoe UI Emoji" font-size="36px" fill="#000000" text-anchor="start" style="white-space: pre;" direction="ltr">-DB_USER:String</text><text x="0" y="123.80000000000001" font-family="Virgil, Segoe UI Emoji" font-size="36px" fill="#000000" text-anchor="start" style="white-space: pre;" direction="ltr">-DB_PASS:String</text><text x="0" y="169.4" font-family="Virgil, Segoe UI Emoji" font-size="36px" fill="#000000" text-anchor="start" style="white-space: pre;" direction="ltr">-connection:MySQL</text><text x="0" y="215" font-family="Virgil, Segoe UI Emoji" font-size="36px" fill="#000000" text-anchor="start" style="white-space: pre;" direction="ltr">-conn:Connection</text></g><g transform="translate(514.9983639890634 416.20226055241847) rotate(0 540.5 68.5)"><text x="0" y="31.666666666666664" font-family="Virgil, Segoe UI Emoji" font-size="36px" fill="#000000" text-anchor="start" style="white-space: pre;" direction="ltr">+MySQL(DB_PATH:String, DB_USER:String, DB_PASS:String)</text><text x="0" y="77.33333333333333" font-family="Virgil, Segoe UI Emoji" font-size="36px" fill="#000000" text-anchor="start" style="white-space: pre;" direction="ltr">+createConnection():MySQL</text><text x="0" y="123" font-family="Virgil, Segoe UI Emoji" font-size="36px" fill="#000000" text-anchor="start" style="white-space: pre;" direction="ltr">+gconn():Connection</text></g><g stroke-linecap="round" transform="translate(481.1481756096782 10) rotate(0 561.6030140698913 276.8014663448413)"><path d="M0.29 -0.17 C303.13 -4.21, 606.25 -4.57, 1122.41 0.27 M-0.25 -0.31 C285.17 -2.83, 569.5 -2.42, 1123.11 0.37 M1122.55 0.47 C1120.88 122.01, 1120.58 245.31, 1122.86 553.32 M1123.17 -0.24 C1123.46 113.43, 1123.86 226.8, 1123.15 553.58 M1123.16 554.15 C793.89 548.74, 463.23 548.81, 0.65 553.9 M1122.81 553.46 C716.05 555.67, 309.46 555.52, 0.38 553.54 M0.24 553.67 C1.06 432.7, 1.02 311.06, -0.13 -0.05 M-0.28 553.33 C1.54 384.9, 1.79 217.32, -0.12 -0.39" stroke="#000000" stroke-width="1" fill="none"></path></g><g stroke-linecap="round"><g transform="translate(478.6376559593373 111.86628819694988) rotate(0 563.2001491443611 -0.9012440078196278)"><path d="M0.43 -0.25 C188.12 -0.72, 939.35 -1.35, 1127.2 -1.67 M-0.8 -1.43 C186.66 -1.18, 938.45 -0.17, 1126.44 -0.13" stroke="#000000" stroke-width="1" fill="none"></path></g></g><g stroke-linecap="round"><g transform="translate(480.5513201701988 384.0365350391503) rotate(0 560.0061046129904 -0.7534615025147104)"><path d="M-0.25 0.35 C186.27 0.26, 933.6 0.29, 1120.26 -0.1 M1.82 -0.51 C188.09 -0.98, 933.18 -1.73, 1119.32 -1.86" stroke="#000000" stroke-width="1" fill="none"></path></g></g><g transform="translate(530.1804079783014 889.6299918880468) rotate(0 91.5 23)"><text x="0" y="32" font-family="Virgil, Segoe UI Emoji" font-size="36px" fill="#000000" text-anchor="start" style="white-space: pre;" direction="ltr">Application</text></g><g transform="translate(529.565372209765 946.6871834643225) rotate(0 155.5 45.5)"><text x="0" y="32.5" font-family="Virgil, Segoe UI Emoji" font-size="36px" fill="#000000" text-anchor="start" style="white-space: pre;" direction="ltr">-connection:MySQL</text><text x="0" y="78" font-family="Virgil, Segoe UI Emoji" font-size="36px" fill="#000000" text-anchor="start" style="white-space: pre;" direction="ltr">-window:Window </text></g><g transform="translate(536.9939610769525 1043.5443088828506) rotate(0 116.5 68.5)"><text x="0" y="31.666666666666664" font-family="Virgil, Segoe UI Emoji" font-size="36px" fill="#000000" text-anchor="start" style="white-space: pre;" direction="ltr">+Application()</text><text x="0" y="77.33333333333333" font-family="Virgil, Segoe UI Emoji" font-size="36px" fill="#000000" text-anchor="start" style="white-space: pre;" direction="ltr">+table():void</text><text x="0" y="123" font-family="Virgil, Segoe UI Emoji" font-size="36px" fill="#000000" text-anchor="start" style="white-space: pre;" direction="ltr">+run():void</text></g><g stroke-linecap="round" transform="translate(490.9201087800775 876.8632696479108) rotate(0 186.66666666666606 161.77776760525194)"><path d="M1.17 -1.5 C129.74 0.31, 263.76 2.23, 374.76 -0.47 M0.72 -0.19 C137.09 -1.25, 276.39 -2.07, 374.11 0.23 M371.38 2.32 C377.91 106.19, 374.1 207.47, 372.67 321.59 M371.99 0.64 C371.34 112.39, 369.48 223.11, 373.25 322.98 M374.39 323.19 C274.06 327.34, 178.03 326.02, 2 325.97 M373.63 324.13 C235.74 320.42, 96.83 321.72, 0.04 322.43 M0.39 321.1 C1.89 233.04, 3.62 143.76, 0.4 1.57 M1.33 323.05 C-4.3 257.75, -2.77 189.09, -0.13 -1.29" stroke="#000000" stroke-width="1" fill="none"></path></g><g stroke-linecap="round"><g transform="translate(493.4606572711673 941.4831138726313) rotate(0 183.9489534877789 -0.7072788674094568)"><path d="M-1.09 1.15 C144.7 -2.66, 291.81 -2.62, 368.99 -2.55 M0.03 -0.09 C138.75 0.65, 276.53 0.83, 368.51 -1.99" stroke="#000000" stroke-width="1" fill="none"></path></g></g><g stroke-linecap="round"><g transform="translate(491.86062065007354 1042.2831016656) rotate(0 183.8615605657542 -2.3316175454611425)"><path d="M0.98 -0.79 C88.21 1.1, 179.13 -1.3, 367.32 -4.83 M0.4 0.17 C138.92 -0.04, 277.3 -2.81, 367.27 -4.35" stroke="#000000" stroke-width="1" fill="none"></path></g></g><g transform="translate(94.98046552574124 956.5157079176233) rotate(0 100.5 23)"><text x="0" y="32" font-family="Virgil, Segoe UI Emoji" font-size="36px" fill="#000000" text-anchor="start" style="white-space: pre;" direction="ltr">Entry Point</text></g><g transform="translate(89.85106033756165 1016.9728715921146) rotate(0 98.5 23)"><text x="0" y="32" font-family="Virgil, Segoe UI Emoji" font-size="36px" fill="#000000" text-anchor="start" style="white-space: pre;" direction="ltr">+main():void</text></g><g stroke-linecap="round" transform="translate(69.71367141184055 947.8156433342001) rotate(0 121.77776760525194 60)"><path d="M1.37 0.75 C63.01 2.82, 123.1 2.44, 244.64 -1.2 M-0.73 -0.11 C51.1 -0.99, 102.47 -0.86, 243.13 -0.13 M242.13 -0.94 C243.64 28.36, 243.91 51.56, 241.79 120.05 M243.07 0.91 C243.86 25.6, 245.02 53.66, 243.17 120.42 M244.52 119.28 C194.72 118.89, 144.78 117.12, -1.48 119 M243.88 119.87 C149.6 120.82, 54.21 119.61, -0.72 119.73 M-0.88 121.68 C-1.1 75.31, 0.74 32.84, -0.09 0.13 M-0.4 119.25 C-0.87 94.36, -0.45 68.64, -0.99 0.19" stroke="#000000" stroke-width="1" fill="none"></path></g><g stroke-linecap="round"><g transform="translate(67.63210720490315 1007.3687863056675) rotate(0 121.88508003075049 1.1044020353662063)"><path d="M0.11 0.84 C95.84 0.01, 192.13 -0.11, 243.66 2.2 M0.12 -0.63 C65.32 0.98, 131.7 1.82, 243.59 2.84" stroke="#000000" stroke-width="1" fill="none"></path></g></g><g transform="translate(1843.209181694825 642.315688626154) rotate(0 105 23)"><text x="0" y="32" font-family="Virgil, Segoe UI Emoji" font-size="36px" fill="#000000" text-anchor="start" style="white-space: pre;" direction="ltr">MMTFRoute</text></g><g transform="translate(1837.4897874348462 693.2491014505158) rotate(0 558.5 45.5)"><text x="0" y="32.5" font-family="Virgil, Segoe UI Emoji" font-size="36px" fill="#000000" text-anchor="start" style="white-space: pre;" direction="ltr">+handle(Request request, Response, response):String</text><text x="0" y="78" font-family="Virgil, Segoe UI Emoji" font-size="36px" fill="#000000" text-anchor="start" style="white-space: pre;" direction="ltr">+handleStructure(Structure structure, Response response):void</text></g><g stroke-linecap="round" transform="translate(1823.4154323245311 626.4885542364354) rotate(0 570.2222018771699 81.7777845594619)"><path d="M-0.67 0.64 C306.24 -4.72, 612.76 -4.35, 1139.79 0.66 M-0.06 0.19 C394.41 -3.51, 787.93 -3.51, 1140.65 -0.35 M1139.65 0.44 C1138.83 46.56, 1138.27 92.05, 1140.18 162.13 M1141.13 -0.69 C1140.46 41.42, 1140.55 83.21, 1140.93 163.07 M1141.22 164.13 C694.36 159.91, 248.15 159.91, -0.76 164.02 M1140.74 163.32 C847.91 165.53, 556.44 166.03, 0.02 163.71 M-1.59 162.33 C-2.51 116.38, 0.62 70.75, 0.13 -0.88 M0.44 164.3 C0.74 100.84, -0.1 38.64, 0.66 -0.4" stroke="#000000" stroke-width="1" fill="none"></path></g><g stroke-linecap="round"><g transform="translate(1822.939414856959 685.261488680806) rotate(0 570.211832380721 2.347191617620126)"><path d="M0.17 -0.62 C289.41 0.91, 579.18 1.77, 1140.38 5.26 M-0.21 -0.19 C378.75 4.88, 757.12 6.24, 1140.64 4.78" stroke="#000000" stroke-width="1" fill="none"></path></g></g><g transform="translate(1106.4089541208832 880.2012869450718) rotate(0 89 23)"><text x="0" y="32" font-family="Virgil, Segoe UI Emoji" font-size="36px" fill="#000000" text-anchor="start" style="white-space: pre;" direction="ltr">NGLRoute</text></g><g transform="translate(1106.4601020662285 931.0539188924358) rotate(0 525 23)"><text x="0" y="32" font-family="Virgil, Segoe UI Emoji" font-size="36px" fill="#000000" text-anchor="start" style="white-space: pre;" direction="ltr">+handle(Request request, Response, response):ModelAndView</text></g><g stroke-linecap="round" transform="translate(1089.6391218882163 856.4902048498916) rotate(0 540.5000114440918 66.9999885559082)"><path d="M-0.31 0.33 C229.31 -2.75, 459.38 -2.62, 1080.65 0.56 M-0.36 -0.24 C377.1 2.79, 753.53 2.68, 1080.94 0.19 M1079.25 -0.65 C1081.32 51.9, 1080.06 102.45, 1082.68 133.04 M1080.96 0.06 C1080.71 38.43, 1082.25 75.15, 1080.25 133.91 M1080.21 134.16 C783.87 132.23, 487.47 131.33, 0.58 134.26 M1081.22 133.61 C727.71 132.95, 373.74 133.63, 0.01 134.01 M-1.37 133.21 C2.29 80.7, 1.91 32.48, 1.79 0.46 M0.12 134.83 C-0.56 104.1, -0.03 74.88, 0.09 -0.49" stroke="#000000" stroke-width="1" fill="none"></path></g><g stroke-linecap="round"><g transform="translate(1092.7106856089067 927.890022180386) rotate(0 538.5547026489467 -2.5383988523132075)"><path d="M0.05 0.11 C229.94 -4.46, 461.86 -6.93, 1077.06 -4.98 M0.12 -0.29 C286.16 1.62, 572.78 0.53, 1076.79 -5.64" stroke="#000000" stroke-width="1" fill="none"></path></g></g><g transform="translate(1477.5199668975747 1366.2901270058346) rotate(0 101.5 23)"><text x="0" y="32" font-family="Virgil, Segoe UI Emoji" font-size="36px" fill="#000000" text-anchor="start" style="white-space: pre;" direction="ltr">NGLParams</text></g><g transform="translate(1480.9923765849198 1412.875944615358) rotate(0 90 68.5)"><text x="0" y="31.666666666666664" font-family="Virgil, Segoe UI Emoji" font-size="36px" fill="#000000" text-anchor="start" style="white-space: pre;" direction="ltr">-url</text><text x="0" y="77.33333333333333" font-family="Virgil, Segoe UI Emoji" font-size="36px" fill="#000000" text-anchor="start" style="white-space: pre;" direction="ltr">-structUrl</text><text x="0" y="123" font-family="Virgil, Segoe UI Emoji" font-size="36px" fill="#000000" text-anchor="start" style="white-space: pre;" direction="ltr">-size</text></g><g transform="translate(1475.8812926005503 1559.3203415880134) rotate(0 263 23)"><text x="0" y="32" font-family="Virgil, Segoe UI Emoji" font-size="36px" fill="#000000" text-anchor="start" style="white-space: pre;" direction="ltr">+NGLParams(structUrl:String)</text></g><g stroke-linecap="round" transform="translate(1462.505665975943 1360.2233566036339) rotate(0 277.99999237060547 130.5000114440918)"><path d="M-0.61 -0.2 C206.42 -0.41, 415.04 -1.23, 556.01 -0.29 M0.2 -0.33 C206.82 1.25, 412.69 0.94, 556.2 0.27 M555.07 -0.43 C556.93 70.02, 558.66 138.6, 556 261.19 M555.32 0.41 C554.06 89.43, 553.84 179.14, 556.11 260.55 M556.08 260.68 C436.58 260.29, 317.93 260.19, -0.43 260.47 M555.99 261.21 C359.38 262.91, 162.4 263.26, 0.17 260.8 M0.64 260.69 C-1.35 193.23, -0.75 123.37, -0.15 0.8 M-0.2 261.24 C2.37 168.72, 1.68 78, 0.13 0.66" stroke="#000000" stroke-width="1" fill="none"></path></g><g stroke-linecap="round"><g transform="translate(1465.7201010083681 1415.6231946424814) rotate(0 276.0634734226114 -2.424459051872873)"><path d="M0.53 -0.65 C112.65 0.37, 225.1 -0.85, 551.5 -5.08 M-0.08 0.24 C205.43 -3.13, 410.61 -4.87, 552.2 -4.24" stroke="#000000" stroke-width="1" fill="none"></path></g></g><g stroke-linecap="round"><g transform="translate(1462.2915382991032 1552.7660953818795) rotate(0 278.1931197839117 -1.107365774050427)"><path d="M-0.8 -0.68 C148.88 -1.67, 296.99 -2.9, 557.19 -0.94 M-0.38 -0.16 C194.38 -2.07, 388.41 -2.84, 556.91 -1.03" stroke="#000000" stroke-width="1" fill="none"></path></g></g><g transform="translate(1463.9137606394415 1111.1158124766598) rotate(0 154 23)"><text x="0" y="32" font-family="Virgil, Segoe UI Emoji" font-size="36px" fill="#000000" text-anchor="start" style="white-space: pre;" direction="ltr">NGLRouteParams</text></g><g transform="translate(1465.1580892139573 1168.9300752906602) rotate(0 461 23)"><text x="0" y="32" font-family="Virgil, Segoe UI Emoji" font-size="36px" fill="#000000" text-anchor="start" style="white-space: pre;" direction="ltr">+ModelAndView(String structureID, String structUrl)</text></g><g stroke-linecap="round" transform="translate(1449.3725126963218 1097.8902470658759) rotate(0 477.5000190734863 61.000003814697266)"><path d="M0.32 -0.16 C253.21 -1.54, 506.35 -1.92, 954.92 0.4 M-0.1 0.12 C335.26 0.97, 669.99 1.4, 955.07 0.33 M955.95 -0.3 C953.73 38.4, 955.81 75.98, 953.24 123.16 M954.55 0.55 C954.3 34, 953.17 68.75, 954.15 122.27 M955.66 121.23 C610.29 123.2, 265.31 122.47, 0.39 121.31 M954.81 122.31 C724.98 124.73, 494.58 124.68, 0.4 122.28 M-0.97 120.48 C2.35 90.5, 0.76 59.13, 0.41 -1.95 M-0.43 122.56 C0.56 77.68, -1.24 35.06, -0.11 0.34" stroke="#000000" stroke-width="1" fill="none"></path></g><g stroke-linecap="round"><g transform="translate(1447.8724287729783 1160.5759280002321) rotate(0 478.0798911978095 -5.026052491792882)"><path d="M0.36 0.1 C313.87 -6.77, 627.32 -9.01, 956.11 -9.97 M0.05 -0.2 C262.41 -2.57, 524.32 -5.31, 955.12 -10.15" stroke="#000000" stroke-width="1" fill="none"></path></g></g><g transform="translate(1119.8856997263483 1078.963157011396) rotate(0 62 23)"><text x="0" y="32" font-family="Virgil, Segoe UI Emoji" font-size="36px" fill="#000000" text-anchor="start" style="white-space: pre;" direction="ltr">Routes</text></g><g transform="translate(1117.8727302400457 1121.148875426682) rotate(0 118.5 45.5)"><text x="0" y="32.5" font-family="Virgil, Segoe UI Emoji" font-size="36px" fill="#000000" text-anchor="start" style="white-space: pre;" direction="ltr">+NGL:String</text><text x="0" y="78" font-family="Virgil, Segoe UI Emoji" font-size="36px" fill="#000000" text-anchor="start" style="white-space: pre;" direction="ltr">+MMTF:String</text></g><g stroke-linecap="round" transform="translate(1099.3727949839158 1064.8233754228077) rotate(0 134.50000762939453 78.50000381469727)"><path d="M1.56 1.1 C91.74 -1.49, 184.64 -1.38, 267.81 1.31 M0.16 -0.76 C81.45 0.05, 162.3 -0.53, 269.44 0.73 M268.77 0.68 C267.78 38.02, 267.61 74.48, 268.24 157.27 M269.53 -0.85 C269.63 60.95, 269.36 122.35, 269.79 156.44 M267.9 156.95 C197.05 155.58, 121.43 154.77, -0.95 156.85 M268.27 156.4 C207.58 155.73, 147.1 154.9, 0.75 157.69 M1.54 157.37 C0.47 121.13, 0.23 85.25, 1.18 -1.75 M-0.04 157.54 C-0.24 96.98, -0.99 36.2, 0.32 0.53" stroke="#000000" stroke-width="1" fill="none"></path></g><g stroke-linecap="round"><g transform="translate(1097.72992694192 1119.6518099582381) rotate(0 135.03028259783287 -0.3542401117220777)"><path d="M-1.21 0.36 C91.37 -0.34, 180.41 -0.9, 271.27 -1.07 M-0.17 -0.24 C55.29 -0.49, 109.7 -0.94, 270.67 -0.72" stroke="#000000" stroke-width="1" fill="none"></path></g></g><g transform="translate(513.6376724697966 1370.4300418060857) rotate(0 57 23)"><text x="0" y="32" font-family="Virgil, Segoe UI Emoji" font-size="36px" fill="#000000" text-anchor="start" style="white-space: pre;" direction="ltr">Window</text></g><g transform="translate(510.39592577925396 1415.2442762823366) rotate(0 101 45.5)"><text x="0" y="32.5" font-family="Virgil, Segoe UI Emoji" font-size="36px" fill="#000000" text-anchor="start" style="white-space: pre;" direction="ltr">+Window()</text><text x="0" y="78" font-family="Virgil, Segoe UI Emoji" font-size="36px" fill="#000000" text-anchor="start" style="white-space: pre;" direction="ltr">+hello():void</text></g><g stroke-linecap="round" transform="translate(502.0391157847007 1353.4901895911025) rotate(0 110 77.5)"><path d="M-0.98 -0.49 C73.98 -2.7, 145.61 -1.57, 221.23 0.04 M-0.08 -0.63 C45.78 0.55, 90.96 0.49, 219.8 0.21 M221.77 -1.42 C219.3 58.71, 220.29 116.38, 220.9 155.04 M219.13 0.86 C220.66 52.03, 220.03 103.74, 220.69 155.58 M220.92 154.35 C155.9 156.64, 91.53 156.78, -1.21 154.54 M219.23 154.25 C150.37 156.02, 81.51 157.06, -0.37 155.54 M1.38 153.1 C-1.91 113.93, 0.82 73.41, -1.88 1.74 M0.73 155.15 C0.44 92.82, 0.33 32.25, -0.6 -0.58" stroke="#000000" stroke-width="1" fill="none"></path></g><g stroke-linecap="round"><g transform="translate(502.5391593812383 1413.0329250996083) rotate(0 107.97541833718333 1.0792800697834792)"><path d="M0.65 0.47 C42.6 0.62, 89.35 0.29, 216.63 2.5 M-0.77 0.78 C60.28 -0.37, 119.26 -0.82, 216.72 0.32" stroke="#000000" stroke-width="1" fill="none"></path></g></g><g stroke-linecap="round"><g transform="translate(324.27707369368363 1012.1972835990746) rotate(0 79.20401576480617 2.163582366752223)"><path d="M0.86 2.12 C42.83 0.05, 89.15 1.14, 158.63 4.5 M-0.22 -0.17 C31.92 3.11, 63.99 4.01, 158.57 0.87" stroke="#000000" stroke-width="2" fill="none"></path></g></g><g stroke-linecap="round"><g transform="translate(692.4200761583288 863.2327538378731) rotate(0 -1.3506119897178905 -142.37094011123696)"><path d="M-0.55 -3.01 C1.41 -62.53, -4.37 -128.34, 0.77 -284.05 M0.22 -0.6 C-3.61 -107.13, -5.2 -214.19, -0.94 -284.15" stroke="#000000" stroke-width="2" fill="none"></path></g></g><g stroke-linecap="round"><g transform="translate(817.3152584499894 857.0754618805613) rotate(0 491.7084110751748 -78.5220718586487)"><path d="M-3.21 -0.12 C-2.98 -34.78, -7.35 -75.76, -2.79 -148.36 M0.57 0.14 C-1.69 -60.28, -2.87 -121.93, -5.66 -149.55 M-3.36 -149.83 C353.18 -148.43, 712.16 -149.32, 987.73 -155.99 M-4.89 -150.83 C212.14 -153.77, 429.48 -154.67, 989.07 -157.19" stroke="#000000" stroke-width="2" fill="none"></path></g></g><g stroke-linecap="round"><g transform="translate(878.1154293484269 956.2754740875926) rotate(0 99.2038194835186 -2.872730940580368)"><path d="M-0.65 0.72 C64.76 -3.53, 131.29 -3.14, 199.06 -6.47 M-0.19 0.04 C64.94 1.03, 129.32 0.85, 198.69 -1.9" stroke="#000000" stroke-width="2" fill="none"></path></g></g><g transform="translate(1889.365124172642 184.92556716620766) rotate(0 125 45.5)"><text x="0" y="32.5" font-family="Virgil, Segoe UI Emoji" font-size="36px" fill="#000000" text-anchor="start" style="white-space: pre;" direction="ltr">&lt;&lt;Interface&gt;&gt;</text><text x="0" y="78" font-family="Virgil, Segoe UI Emoji" font-size="36px" fill="#000000" text-anchor="start" style="white-space: pre;" direction="ltr">Route</text></g><g stroke-linecap="round" transform="translate(1850.4364437527202 151.9970284350411) rotate(0 178.28574044363813 74.85713413783469)"><path d="M-2.32 -1.39 C84.93 -2.31, 166.61 -2.68, 354.45 -1.47 M0.36 0.56 C72.48 -3.8, 144.22 -2.08, 356.95 1.26 M352.81 -2.41 C359.84 61.15, 360.18 118.43, 356.35 145.86 M358.18 -1.03 C355.4 46.39, 356.09 91.72, 355.31 148.47 M354.63 151.46 C281.95 144.56, 208.15 145.48, -2.05 150.26 M356.84 149.96 C229.71 149.02, 103.57 147.07, 0.04 150.1 M-3.01 149.59 C4.65 111.42, 2.89 82.39, 1.09 2.98 M-0.1 150.53 C-0.35 114.13, -2.96 80.04, -0.74 1.67" stroke="#000000" stroke-width="1" fill="none"></path></g><g stroke-linecap="round"><g transform="translate(1979.7460198780846 617.9493984882874) rotate(0 -1.2250898314896403 -152.29453685787456)"><path d="M0.48 -0.31 C1.93 -87.72, 0.73 -176.55, -3.51 -304.28" stroke="#000000" stroke-width="2.5" fill="none" stroke-dasharray="8 10"></path></g><g transform="translate(1979.7460198780846 617.9493984882874) rotate(0 -1.2250898314896403 -152.29453685787456)"><path d="M8.21 -276.82 C5.58 -282.02, 1.15 -289.36, -6.77 -303.09" stroke="#000000" stroke-width="2.5" fill="none"></path></g><g transform="translate(1979.7460198780846 617.9493984882874) rotate(0 -1.2250898314896403 -152.29453685787456)"><path d="M-12.3 -276.24 C-8.92 -281.97, -7.34 -289.48, -6.77 -303.09" stroke="#000000" stroke-width="2.5" fill="none"></path></g></g><g transform="translate(2536.9603317502933 881.2349765348145) rotate(0 168 45.5)"><text x="0" y="32.5" font-family="Virgil, Segoe UI Emoji" font-size="36px" fill="#000000" text-anchor="start" style="white-space: pre;" direction="ltr">&lt;&lt;Interface&gt;&gt;</text><text x="0" y="78" font-family="Virgil, Segoe UI Emoji" font-size="36px" fill="#000000" text-anchor="start" style="white-space: pre;" direction="ltr">TemplateViewRoute</text></g><g stroke-linecap="round" transform="translate(2498.960301232715 841.7350223111816) rotate(0 213.00010681152344 81.00006103515625)"><path d="M-0.15 1.19 C103.09 -0.04, 203.79 0.39, 425.84 1.9 M-0.76 -0.47 C103.23 0.12, 204.95 -0.57, 425.35 0.11 M426.5 -2.67 C429.19 44.37, 421.66 80.37, 427.67 162.91 M425.45 -0.07 C422.64 53.43, 424.33 105.63, 424.22 161.88 M426.99 161.43 C325.95 162.8, 225.92 164.49, 1.94 162.89 M425.08 161.41 C269.56 162.56, 112.69 162.6, -0.23 161.79 M0.46 163.99 C-1.29 117.3, 0.47 70.18, 2.32 -3.49 M-1.45 161.67 C3.81 116.59, 3.92 73.5, 1.66 -1.92" stroke="#000000" stroke-width="1" fill="none"></path></g><g stroke-linecap="round"><g transform="translate(2190.9604233030277 927.7350070523926) rotate(0 150.6680575587975 -3.152189238374774)"><path d="M-1.09 -1.49 C116.21 0.09, 225.05 1.26, 302.42 -6" stroke="#000000" stroke-width="2.5" fill="none" stroke-dasharray="8 10"></path></g><g transform="translate(2190.9604233030277 927.7350070523926) rotate(0 150.6680575587975 -3.152189238374774)"><path d="M273.37 3.81 C288.7 0.05, 292.46 -0.72, 300.25 -8.75" stroke="#000000" stroke-width="2.5" fill="none"></path></g><g transform="translate(2190.9604233030277 927.7350070523926) rotate(0 150.6680575587975 -3.152189238374774)"><path d="M272.19 -16.68 C288.11 -12.76, 292.31 -5.88, 300.25 -8.75" stroke="#000000" stroke-width="2.5" fill="none"></path></g></g><g stroke-linecap="round"><g transform="translate(1235.6437220497628 996.4853274869556) rotate(0 -1.352903856800367 28.314036950469017)"><path d="M-2.96 2.49 C3.81 16, 1.68 31.14, -3.94 56.37 M-1.2 -1.97 C-2.86 22.18, -1.59 46.45, -2.81 58.6" stroke="#000000" stroke-width="2" fill="none"></path></g></g><g stroke-linecap="round"><g transform="translate(881.7771601601144 1147.4353066332778) rotate(0 102.87699875557564 0.2184851468086606)"><path d="M-1.03 0.49 C42.51 -1.13, 89.19 1.66, 205.43 0.14 M-0.33 1.01 C55.12 -3.65, 108.99 -0.04, 206.79 1.7" stroke="#000000" stroke-width="2" fill="none"></path></g></g><g stroke-linecap="round"><g transform="translate(1670.613018610019 1005.2685178963065) rotate(0 -1.231026185106657 35.53680560489556)"><path d="M-2.46 -0.66 C-2.69 20.54, -2.78 43.42, 0.1 71.07 M-0.67 -1.16 C-0.76 17.47, -0.73 30.83, -1.26 72.23" stroke="#000000" stroke-width="2" fill="none"></path></g></g><g stroke-linecap="round"><g transform="translate(1670.3557953046238 1225.702106560041) rotate(0 1.2765500821919886 59.85460893313119)"><path d="M-1.9 -0.28 C-2.43 32.58, -2.11 67.93, 1.08 119.15 M0.78 0.94 C3.25 35.36, 4.78 69.52, 4.65 119.99" stroke="#000000" stroke-width="2" fill="none"></path></g><g transform="translate(1670.3557953046238 1225.702106560041) rotate(0 1.2765500821919886 59.85460893313119)"><path d="M-7.72 91.6 C-4.55 98.11, -2.24 107.02, 2.18 119.14 M-5.04 92.82 C-2.25 101.01, 1.27 108.87, 5.75 119.98" stroke="#000000" stroke-width="2" fill="none"></path></g><g transform="translate(1670.3557953046238 1225.702106560041) rotate(0 1.2765500821919886 59.85460893313119)"><path d="M12.8 91.44 C10.07 97.76, 6.47 106.72, 2.18 119.14 M15.48 92.67 C12.4 100.69, 10.04 108.59, 5.75 119.98" stroke="#000000" stroke-width="2" fill="none"></path></g></g><g stroke-linecap="round"><g transform="translate(612.6440017942386 1217.03526696043) rotate(0 0.6557376226442102 56.87657891213894)"><path d="M-0.18 2.87 C-1.91 25.88, 2.56 57.9, 0.29 109.69 M0.51 -0.01 C0.99 29.91, 2.59 59.6, 1.55 113.77" stroke="#000000" stroke-width="2" fill="none"></path></g></g><g transform="translate(58.64416455466744 1389.2019488858887) rotate(0 63 23)"><text x="0" y="32" font-family="Virgil, Segoe UI Emoji" font-size="36px" fill="#000000" text-anchor="start" style="white-space: pre;" direction="ltr">JFrame</text></g><g stroke-linecap="round" transform="translate(22.31085156638619 1358.5352822192226) rotate(0 163.99998982747456 46.000010172526345)"><path d="M-2.47 -0.75 C99.3 2.96, 199.26 5.73, 325.47 1.27 M1.03 -1.33 C101.04 -4.34, 199.86 -4.73, 328.65 0.01 M328.07 -0.35 C332.3 34.16, 329.32 60.45, 326.38 90.69 M329.15 1.32 C329.64 24.07, 331.63 48.76, 328.27 90.53 M329.28 93.27 C260.36 96.4, 190.35 91.97, 1.23 90.69 M328.36 92.18 C231.83 95.77, 135.87 95.91, 0.11 91.75 M1.01 93.52 C0.77 63.92, 1.07 34.14, 1.34 -2.97 M-0.71 92.53 C1.56 71.45, 2.34 51.44, -0.79 -0.28" stroke="#000000" stroke-width="1" fill="none"></path></g><g stroke-linecap="round"><g transform="translate(492.5774683876789 1414.5472658182107) rotate(0 -64.9198674634099 0.45928318053483963)"><path d="M-1 2.06 C-49.5 -1.8, -102.15 1.16, -125.61 2.61 M-1.48 1.13 C-36.44 -0.82, -73.14 -1.14, -128.84 -1.69" stroke="#000000" stroke-width="2" fill="none"></path></g><g transform="translate(492.5774683876789 1414.5472658182107) rotate(0 -64.9198674634099 0.45928318053483963)"><path d="M-101.54 -9.6 C-110.72 -7.93, -124.24 -0.62, -127.45 1.92 M-102.03 -10.53 C-108.84 -7.46, -117.55 -4.68, -130.68 -2.38" stroke="#000000" stroke-width="2" fill="none"></path></g><g transform="translate(492.5774683876789 1414.5472658182107) rotate(0 -64.9198674634099 0.45928318053483963)"><path d="M-101.76 10.92 C-111.2 4.46, -124.63 3.63, -127.45 1.92 M-102.24 9.99 C-109.28 7.24, -117.93 4.21, -130.68 -2.38" stroke="#000000" stroke-width="2" fill="none"></path></g></g><g transform="translate(891.1778021918453 1362.2902587642884) rotate(0 125 45.5)"><text x="0" y="32.5" font-family="Virgil, Segoe UI Emoji" font-size="36px" fill="#000000" text-anchor="start" style="white-space: pre;" direction="ltr">&lt;&lt;Interface&gt;&gt;</text><text x="0" y="78" font-family="Virgil, Segoe UI Emoji" font-size="36px" fill="#000000" text-anchor="start" style="white-space: pre;" direction="ltr">WindowUtils</text></g><g stroke-linecap="round" transform="translate(862.6063736204105 1347.1474190600466) rotate(0 164.00002615792437 79.99997820172939)"><path d="M1.41 0.77 C87.84 0.46, 171.68 2.11, 326.6 1.4 M-0.54 0.4 C115.14 -4.18, 230.99 -3.07, 328.4 0.99 M329.17 -1.89 C328.74 37.12, 326.17 72.35, 330.3 158.15 M329.42 1.28 C329.17 51.05, 327.74 104.23, 327.74 161.09 M329.02 158.77 C262.87 161.23, 192.13 164.36, -1.64 160.29 M328.9 160.16 C198.5 164.05, 66.93 164.48, 0.61 160.11 M-0.49 160.63 C4.02 127.62, 3.47 85.82, -3.1 -3.96 M-1.35 158.71 C-1.43 125.99, -2.23 92.83, 0.25 1.2" stroke="#000000" stroke-width="1" fill="none"></path></g><g transform="translate(888.6063910590292 1453.718699403239) rotate(0 101 23)"><text x="0" y="32" font-family="Virgil, Segoe UI Emoji" font-size="36px" fill="#000000" text-anchor="start" style="white-space: pre;" direction="ltr">+hello():void</text></g><g stroke-linecap="round"><g transform="translate(863.749300517733 1453.4329502402934) rotate(0 163.4984714829261 -1.2558464226385553)"><path d="M-1.43 -2.37 C69.74 -5.43, 137.86 -1.34, 326.84 0.92 M-0.58 -1.34 C95.9 0.03, 193.24 -0.34, 328.43 0.7" stroke="#000000" stroke-width="1" fill="none"></path></g></g><g stroke-linecap="round"><g transform="translate(741.4634903196275 1423.4330592316464) rotate(0 58.92065442885723 1.1086982043147202)"><path d="M1.79 3.89 C24.89 -3.25, 47.23 -3.32, 116.05 2.47" stroke="#000000" stroke-width="2.5" fill="none" stroke-dasharray="8 10"></path></g><g transform="translate(741.4634903196275 1423.4330592316464) rotate(0 58.92065442885723 1.1086982043147202)"><path d="M88.99 14.6 C94.31 6.42, 98.86 4.22, 115.52 2.66" stroke="#000000" stroke-width="2.5" fill="none"></path></g><g transform="translate(741.4634903196275 1423.4330592316464) rotate(0 58.92065442885723 1.1086982043147202)"><path d="M90.45 -5.87 C95.45 -9.88, 99.7 -7.93, 115.52 2.66" stroke="#000000" stroke-width="2.5" fill="none"></path></g></g><g transform="translate(37.24455430771923 1779.0330231918424) rotate(0 123.5 23)"><text x="0" y="32" font-family="Virgil, Segoe UI Emoji" font-size="36px" fill="#000000" text-anchor="start" style="white-space: pre;" direction="ltr">WindowWindows</text></g><g transform="translate(36.04448106553173 1839.8330720199674) rotate(0 148.5 23)"><text x="0" y="32" font-family="Virgil, Segoe UI Emoji" font-size="36px" fill="#000000" text-anchor="start" style="white-space: pre;" direction="ltr">+WindowWindows()</text></g><g stroke-linecap="round" transform="translate(10.444505479594227 1758.2332185043424) rotate(0 181.60003662109375 68)"><path d="M2.32 1.99 C126.65 5.03, 254.61 1.56, 361.18 1.63 M0.69 0.88 C108.08 -2.82, 215.57 -2.86, 362.26 0.06 M363.08 0.75 C365.59 54.79, 362.27 110.37, 359.7 135.09 M365.16 -0.43 C364.87 33.84, 364.92 65.18, 363.04 137.64 M363.68 135.4 C223.7 134.34, 84.59 133.14, -1.29 133.56 M364.43 136.63 C240.21 134.21, 117.86 136.15, -0.63 135.51 M0.12 132.03 C4.02 99.43, 3.52 56.83, 3.39 3.61 M0.21 137.59 C1.87 85.65, -0.73 34.2, -0.45 -1.98" stroke="#000000" stroke-width="1" fill="none"></path></g><g stroke-linecap="round"><g transform="translate(12.144410875094763 1825.5331452621567) rotate(0 179.4148204221492 0.7786741840034352)"><path d="M-1.52 1.53 C78.4 -5.12, 158.17 -1.03, 359.05 3.51 M0.51 0.68 C135.72 -1.74, 269.62 -1.54, 360.35 1.48" stroke="#000000" stroke-width="1" fill="none"></path></g></g><g transform="translate(36.800048828125 1604.8106788993073) rotate(0 116 23)"><text x="0" y="32" font-family="Virgil, Segoe UI Emoji" font-size="36px" fill="#000000" text-anchor="start" style="white-space: pre;" direction="ltr">WindowMacOS</text></g><g transform="translate(35.5999755859375 1665.6107277274323) rotate(0 141 23)"><text x="0" y="32" font-family="Virgil, Segoe UI Emoji" font-size="36px" fill="#000000" text-anchor="start" style="white-space: pre;" direction="ltr">+WindowMacOS()</text></g><g stroke-linecap="round" transform="translate(10 1584.0108742118073) rotate(0 181.60003662109375 68)"><path d="M-0.6 -0.18 C115.66 -2.2, 232.82 -1.81, 364.61 0.55 M-1.06 0.99 C87.98 -1.82, 178.32 -3.79, 363.87 -0.77 M365.55 -3.18 C364.6 39.04, 363.03 76.48, 364.68 132.06 M365.13 -0.94 C360.64 52.57, 364.25 103.22, 361.89 136.24 M360.92 134.62 C281.55 135.25, 199.22 133, -1.94 135.09 M362.59 134.89 C224.3 138.34, 83.36 137.94, -0.32 136.85 M-1.54 137.35 C3.51 99.49, 2.76 63.4, 2.87 -2.41 M1.54 134.24 C0.6 103.31, -1.18 73.35, 0.19 -1.26" stroke="#000000" stroke-width="1" fill="none"></path></g><g stroke-linecap="round"><g transform="translate(11.699905395500537 1651.3108009696216) rotate(0 179.10665602790596 -0.2703989000185061)"><path d="M-0.82 -2.17 C107.97 -0.81, 217.65 2.16, 357.72 1.29 M-0.56 1.26 C133.1 -3.56, 264.36 -2.83, 359.04 1.63" stroke="#000000" stroke-width="1" fill="none"></path></g></g><g transform="translate(38.577833387586 1959.0328536497427) rotate(0 100.5 23)"><text x="0" y="32" font-family="Virgil, Segoe UI Emoji" font-size="36px" fill="#000000" text-anchor="start" style="white-space: pre;" direction="ltr">WindowLinux</text></g><g transform="translate(37.3777601453985 2019.8329024778677) rotate(0 125 23)"><text x="0" y="32" font-family="Virgil, Segoe UI Emoji" font-size="36px" fill="#000000" text-anchor="start" style="white-space: pre;" direction="ltr">+WindowLinux()</text></g><g stroke-linecap="round" transform="translate(11.777784559460997 1938.2330489622427) rotate(0 181.60003662109375 68)"><path d="M0.68 -0.96 C116.4 -2.1, 234.74 -2.08, 363.7 -1.56 M0.48 1.1 C114.78 4.61, 229.05 4.54, 362.99 0.01 M364.31 0.61 C361.25 45.08, 357.64 97.46, 362.61 139.14 M361.89 0.19 C365.01 39.62, 367.47 74.32, 362.48 137.44 M363.7 138.36 C241.71 134.29, 121.28 132.77, 0.97 133.63 M364.41 137.07 C269.97 138.63, 179.22 138.99, -0.18 136.72 M-0.99 134.26 C-0.39 93.46, 1.36 43.36, -2.41 -3.88 M1.32 135.76 C-0.12 102.62, 3.15 66.51, 0.76 1.37" stroke="#000000" stroke-width="1" fill="none"></path></g><g stroke-linecap="round"><g transform="translate(13.477689954961534 2005.532975720057) rotate(0 180.46310298198705 1.3076563878504146)"><path d="M-0.57 2.19 C135.8 -4.44, 272.35 -2.66, 361.49 4.54 M0.39 0.05 C85.7 -2.52, 173.39 -2.91, 358.99 1.36" stroke="#000000" stroke-width="1" fill="none"></path></g></g><g stroke-linecap="round"><g transform="translate(379.10923185801585 1616.7776351438852) rotate(0 79.96862432360649 -37.2958533888068)"><path d="M-2.61 1.25 C33.03 0.98, 72.15 -1.63, 160.36 1.43 M1.3 -1.84 C37.57 -0.04, 71.11 1.3, 157.77 2.64 M162.55 6.04 C156.96 -25.98, 163.52 -59.3, 161.67 -77.62 M159.56 5.85 C161.77 -16.06, 161.38 -38.97, 160.95 -80.63" stroke="#000000" stroke-width="2" fill="none"></path></g><g transform="translate(379.10923185801585 1616.7776351438852) rotate(0 79.96862432360649 -37.2958533888068)"><path d="M168.86 -51.29 C167.07 -56.23, 169.16 -65.87, 162.64 -83.19 M172.77 -54.37 C170.01 -57.71, 164.78 -63.72, 160.05 -81.99" stroke="#000000" stroke-width="2" fill="none"></path></g><g transform="translate(379.10923185801585 1616.7776351438852) rotate(0 79.96862432360649 -37.2958533888068)"><path d="M148.34 -51.1 C151.03 -56.37, 157.62 -66.05, 162.64 -83.19 M152.25 -54.18 C154.2 -57.83, 153.66 -63.89, 160.05 -81.99" stroke="#000000" stroke-width="2" fill="none"></path></g></g><g stroke-linecap="round"><g transform="translate(387.109211512965 1798.1109481321664) rotate(0 105.97195927997473 -131.21725334055822)"><path d="M0.79 2.73 C66.85 6.08, 125.75 1.09, 207.2 4.91 M0.21 0.1 C44.53 1.49, 86.67 4.04, 206.21 3.95 M208.7 2.32 C207.69 -85.58, 210.24 -172.29, 211.73 -266.2 M208.2 2.65 C206.26 -73.03, 206.73 -147, 209.66 -267.34" stroke="#000000" stroke-width="2" fill="none"></path></g><g transform="translate(387.109211512965 1798.1109481321664) rotate(0 105.97195927997473 -131.21725334055822)"><path d="M220.24 -235.88 C218.95 -244.83, 209.67 -260.7, 210.26 -266.32 M219.58 -238.83 C217.7 -245.24, 213.8 -249.34, 209.15 -267.39" stroke="#000000" stroke-width="2" fill="none"></path></g><g transform="translate(387.109211512965 1798.1109481321664) rotate(0 105.97195927997473 -131.21725334055822)"><path d="M199.72 -236.3 C204.83 -244.88, 201.95 -260.63, 210.26 -266.32 M199.06 -239.25 C201.54 -245.48, 201.98 -249.49, 209.15 -267.39" stroke="#000000" stroke-width="2" fill="none"></path></g></g><g stroke-linecap="round"><g transform="translate(396.4426058814515 2008.7777063515687) rotate(0 126.71346106126157 -238.5902849139741)"><path d="M1.23 2.1 C76.24 -1.01, 146.6 1.74, 247.63 0.02 M0.72 -0.36 C80.18 1.06, 159.06 1.81, 247.97 1.89 M248.68 3.38 C253.08 -95.56, 253.46 -191.28, 251.85 -480.5 M249.08 2.36 C248.32 -136.57, 248.24 -274.74, 252.51 -480.56" stroke="#000000" stroke-width="2" fill="none"></path></g><g transform="translate(396.4426058814515 2008.7777063515687) rotate(0 126.71346106126157 -238.5902849139741)"><path d="M263.81 -449.63 C261.44 -459.84, 253.89 -466.04, 250.42 -484.33 M263.19 -452.64 C260.12 -459.91, 256.86 -469.18, 250.85 -482.05" stroke="#000000" stroke-width="2" fill="none"></path></g><g transform="translate(396.4426058814515 2008.7777063515687) rotate(0 126.71346106126157 -238.5902849139741)"><path d="M243.29 -449.96 C247.03 -460.33, 245.58 -466.42, 250.42 -484.33 M242.67 -452.98 C246.11 -460.23, 249.35 -469.4, 250.85 -482.05" stroke="#000000" stroke-width="2" fill="none"></path></g></g><g transform="translate(57.75158165478388 1232.086973730389) rotate(0 125.27138244478101 24.314276761434257)"><text x="0" y="34.628553522868486" font-family="Virgil, Segoe UI Emoji" font-size="38.05712884398403px" fill="#000000" text-anchor="start" style="white-space: pre;" direction="ltr">ButtonColumn</text></g><g stroke-linecap="round" transform="translate(30.97061762731937 1210.9441136188134) rotate(0 164.91428951345506 49.33336893717387)"><path d="M1.22 -0.74 C86.35 0.07, 176.13 -1.87, 331.64 0.36 M0.55 1 C76.28 4.16, 153.38 3.38, 330.82 -0.87 M330.22 0.67 C327.09 22.64, 334.78 38.57, 331.34 96.85 M328.12 -0.81 C331.17 37.16, 330.6 76.55, 329.73 98.82 M330.01 98.43 C206.98 92.61, 80.38 93.86, -1.93 98.3 M330.32 97.95 C243.38 99.57, 154.84 101.96, -0.37 97.7 M-1.69 98.67 C2.47 64.58, -2.08 26.88, 1.51 -2.97 M-0.26 98.31 C3.8 69.12, 1.27 40.24, -0.43 -0.55" stroke="#000000" stroke-width="1" fill="none"></path></g><g stroke-linecap="round"><g transform="translate(549.6372029137747 1206.2774672971946) rotate(0 -87.91771025210619 29.61906911161725)"><path d="M-2.13 2.79 C1.99 16.61, 0 30.55, 3.03 58.2 M-0.22 0.38 C0.96 17.81, -0.43 40.88, 0.63 58.78 M1.41 55.08 C-41.8 55.82, -76.31 61.49, -176.93 55.33 M1.7 57.31 C-64.1 59.44, -129.91 59.96, -178.87 55.2" stroke="#000000" stroke-width="2" fill="none"></path></g></g></svg>